<svg width="44" height="44" viewBox="0 0 44 44" fill="none" xmlns="http://www.w3.org/2000/svg">
<path d="M22 0C9.84775 0 0 9.8505 0 22C0 34.1495 9.84775 44 22 44C34.1523 44 44 34.1495 44 22C44 9.8505 34.1523 0 22 0ZM32.1942 28.3058C32.7099 28.8214 32.9996 29.5208 32.9996 30.25C32.9996 30.9792 32.7099 31.6786 32.1942 32.1942C31.6786 32.7099 30.9792 32.9996 30.25 32.9996C29.5208 32.9996 28.8214 32.7099 28.3058 32.1942L22 25.8885L15.6942 32.1942C15.4395 32.4505 15.1365 32.6539 14.8028 32.7926C14.4692 32.9314 14.1114 33.0028 13.75 33.0028C13.3886 33.0028 13.0308 32.9314 12.6972 32.7926C12.3635 32.6539 12.0605 32.4505 11.8058 32.1942C11.5501 31.9391 11.3474 31.636 11.209 31.3024C11.0707 30.9688 10.9994 30.6112 10.9994 30.25C10.9994 29.8888 11.0707 29.5312 11.209 29.1976C11.3474 28.864 11.5501 28.5609 11.8058 28.3058L18.1115 22L11.8058 15.6942C11.2901 15.1786 11.0004 14.4792 11.0004 13.75C11.0004 13.0208 11.2901 12.3214 11.8058 11.8058C12.3214 11.2901 13.0208 11.0004 13.75 11.0004C14.4792 11.0004 15.1786 11.2901 15.6942 11.8058L22 18.1115L28.3058 11.8058C28.8214 11.2901 29.5208 11.0004 30.25 11.0004C30.9792 11.0004 31.6786 11.2901 32.1942 11.8058C32.7099 12.3214 32.9996 13.0208 32.9996 13.75C32.9996 14.4792 32.7099 15.1786 32.1942 15.6942L25.8885 22L32.1942 28.3058Z" fill="#D92B2B"/>
</svg>
