<svg width="44" height="44" viewBox="0 0 44 44" fill="none" xmlns="http://www.w3.org/2000/svg">
<path fill-rule="evenodd" clip-rule="evenodd" d="M22 44C34.1503 44 44 34.1503 44 22C44 9.84974 34.1503 0 22 0C9.84974 0 0 9.84974 0 22C0 34.1503 9.84974 44 22 44ZM17.7282 33.0365L11.6642 26.7953L9.26172 35.5088L17.7282 33.0365ZM24.6745 13.4064L30.6861 19.6989L19.5822 31.1261L13.5706 24.8337L24.6745 13.4064ZM32.5225 17.8121L26.5084 11.517L28.2727 9.70153L28.2995 9.6766C28.4591 9.52962 29.3399 8.8 30.2342 9.7199H30.2328L34.2227 13.826C35.3047 14.9388 34.338 15.9427 34.338 15.9427L32.5225 17.8121Z" fill="black"/>
</svg>
