<svg width="242" height="66" viewBox="0 0 242 66" fill="none" xmlns="http://www.w3.org/2000/svg">
<path d="M120.039 0.00369756C101.697 0.224967 93.8361 9.13106 91.9006 14.8011C89.9652 20.4712 94.2827 33.1942 97.1114 39.4173C99.9401 45.6405 112.446 65.0017 121.081 65.0017C129.716 65.0017 140.733 45.2257 144.752 37.8961C148.772 30.5666 150.856 20.0563 148.772 14.8011C146.688 9.54599 138.38 -0.217572 120.039 0.00369756Z" fill="#03012C"/>
<path d="M120.505 0.893893C102.688 1.10405 95.0527 9.56281 93.1727 14.9481C91.2926 20.3333 95.4865 32.4172 98.2343 38.3278C100.982 44.2385 113.13 62.6271 121.518 62.6271C129.905 62.6271 140.607 43.8445 144.512 36.883C148.416 29.9216 150.441 19.9392 148.416 14.9481C146.392 9.95689 138.322 0.683737 120.505 0.893893Z" fill="#03012C"/>
<path fill-rule="evenodd" clip-rule="evenodd" d="M93.1729 14.9481C95.053 9.56281 102.689 1.10405 120.506 0.893893C132.952 0.747081 140.642 5.22834 144.837 9.64473C140.366 6.13551 133.388 3.13814 123.202 3.25811C105.511 3.46647 97.9287 11.8528 96.062 17.1919C94.1952 22.531 98.3595 34.5114 101.088 40.3714C103.106 44.7054 110.229 55.8065 117.172 61.2941C109.418 56.962 100.534 43.2747 98.2345 38.3278C95.4868 32.4172 91.2929 20.3333 93.1729 14.9481Z" fill="white"/>
<path d="M120.506 0.893893L120.511 1.39386L120.506 0.893893ZM93.1729 14.9481L93.645 15.1129L93.1729 14.9481ZM144.837 9.64473L144.528 10.038L145.199 9.30038L144.837 9.64473ZM123.202 3.25811L123.208 3.75808L123.208 3.75808L123.202 3.25811ZM96.062 17.1919L96.5339 17.3569L96.5339 17.3569L96.062 17.1919ZM101.088 40.3714L101.541 40.1603L101.541 40.1603L101.088 40.3714ZM117.172 61.2941L116.928 61.7306L117.482 60.9019L117.172 61.2941ZM98.2345 38.3278L98.6879 38.1171L98.6879 38.1171L98.2345 38.3278ZM120.5 0.393927C102.516 0.606054 94.6635 9.1613 92.7009 14.7833L93.645 15.1129C95.4424 9.96431 102.862 1.60204 120.511 1.39386L120.5 0.393927ZM145.199 9.30038C140.905 4.77905 133.08 0.245542 120.5 0.393927L120.511 1.39386C132.825 1.24862 140.379 5.67763 144.474 9.98908L145.199 9.30038ZM145.146 9.25142C140.58 5.66756 133.489 2.63691 123.196 2.75814L123.208 3.75808C133.287 3.63936 140.153 6.60347 144.528 10.038L145.146 9.25142ZM123.196 2.75814C105.338 2.96846 97.5396 11.4508 95.59 17.0269L96.5339 17.3569C98.3179 12.2547 105.683 3.96447 123.208 3.75808L123.196 2.75814ZM95.59 17.0269C95.0891 18.4593 95.0049 20.2914 95.1779 22.2853C95.3517 24.2881 95.7892 26.4987 96.368 28.7127C97.5253 33.1405 99.2594 37.6289 100.635 40.5824L101.541 40.1603C100.188 37.2539 98.4757 32.8221 97.3355 28.4599C96.7654 26.279 96.3414 24.1271 96.1742 22.1988C96.0061 20.2616 96.1014 18.594 96.5339 17.3569L95.59 17.0269ZM100.635 40.5824C101.661 42.7877 103.966 46.6746 106.878 50.6936C109.79 54.7111 113.338 58.9009 116.862 61.6864L117.482 60.9019C114.063 58.1998 110.578 54.0952 107.688 50.1068C104.799 46.1197 102.532 42.2891 101.541 40.1603L100.635 40.5824ZM97.7811 38.5386C98.9502 41.0533 101.767 45.7427 105.26 50.3438C108.744 54.9342 112.955 59.511 116.928 61.7306L117.416 60.8577C113.635 58.7451 109.527 54.3121 106.056 49.7392C102.593 45.1769 99.8186 40.5492 98.6879 38.1171L97.7811 38.5386ZM92.7009 14.7833C92.1968 16.2271 92.112 18.0743 92.2861 20.085C92.4611 22.1048 92.9017 24.3341 93.4845 26.5672C94.65 31.0329 96.3963 35.5598 97.7811 38.5386L98.6879 38.1171C97.325 35.1853 95.6005 30.7149 94.4521 26.3147C93.878 24.1148 93.4509 21.944 93.2824 19.9987C93.1131 18.0445 93.209 16.3616 93.645 15.1129L92.7009 14.7833Z" fill="#03012C"/>
<path fill-rule="evenodd" clip-rule="evenodd" d="M157.277 14.9816C156.884 14.1661 156.351 13.2676 155.664 12.3323L242 13.6694L157.277 14.9816ZM158.39 21.7907C158.431 20.8212 158.414 19.8938 158.335 19.026L231.611 20.4089L158.39 21.7907ZM157.328 28.6643C157.562 27.7415 157.761 26.8211 157.922 25.9143L223.004 27.2831L157.328 28.6643ZM155.006 35.3691C155.356 34.586 155.684 33.782 155.987 32.9656L214.099 34.1573L155.006 35.3691ZM151.374 42.0815C151.863 41.2433 152.314 40.4571 152.72 39.741L206.086 40.8967L151.374 42.0815Z" fill="#03012C"/>
<path fill-rule="evenodd" clip-rule="evenodd" d="M84.7232 14.9816C85.1157 14.1661 85.6489 13.2676 86.3354 12.3323L1.25726e-06 13.6694L84.7232 14.9816ZM83.6099 21.7907C83.5693 20.8212 83.5859 19.8938 83.6645 19.026L10.3884 20.4089L83.6099 21.7907ZM84.6721 28.6643C84.4382 27.7415 84.2391 26.8211 84.0778 25.9143L18.9959 27.2831L84.6721 28.6643ZM86.9933 35.3691C86.6433 34.586 86.3155 33.782 86.0123 32.9656L27.9003 34.1573L86.9933 35.3691ZM90.6262 42.0815C90.1367 41.2433 89.686 40.4571 89.2796 39.741L35.9142 40.8967L90.6262 42.0815Z" fill="#03012C"/>
<path d="M109.895 23.322C110.687 23.322 111.257 23.133 111.605 22.755C111.953 22.377 112.127 21.849 112.127 21.171C112.127 20.871 112.082 20.598 111.992 20.352C111.902 20.106 111.764 19.896 111.578 19.722C111.398 19.542 111.167 19.404 110.885 19.308C110.609 19.212 110.279 19.164 109.895 19.164H108.311V23.322H109.895ZM109.895 16.887C110.819 16.887 111.611 16.998 112.271 17.22C112.937 17.436 113.483 17.736 113.909 18.12C114.341 18.504 114.659 18.957 114.863 19.479C115.067 20.001 115.169 20.565 115.169 21.171C115.169 21.825 115.064 22.425 114.854 22.971C114.644 23.517 114.323 23.985 113.891 24.375C113.459 24.765 112.91 25.071 112.244 25.293C111.584 25.509 110.801 25.617 109.895 25.617H108.311V30H105.269V16.887H109.895ZM123.957 19.551C123.867 19.695 123.771 19.803 123.669 19.875C123.573 19.947 123.447 19.983 123.291 19.983C123.153 19.983 123.003 19.941 122.841 19.857C122.685 19.767 122.505 19.668 122.301 19.56C122.103 19.452 121.875 19.356 121.617 19.272C121.359 19.182 121.065 19.137 120.735 19.137C120.165 19.137 119.739 19.26 119.457 19.506C119.181 19.746 119.043 20.073 119.043 20.487C119.043 20.751 119.127 20.97 119.295 21.144C119.463 21.318 119.682 21.468 119.952 21.594C120.228 21.72 120.54 21.837 120.888 21.945C121.242 22.047 121.602 22.164 121.968 22.296C122.334 22.422 122.691 22.572 123.039 22.746C123.393 22.92 123.705 23.142 123.975 23.412C124.251 23.682 124.473 24.012 124.641 24.402C124.809 24.786 124.893 25.251 124.893 25.797C124.893 26.403 124.788 26.97 124.578 27.498C124.368 28.026 124.062 28.488 123.66 28.884C123.264 29.274 122.772 29.583 122.184 29.811C121.602 30.033 120.939 30.144 120.195 30.144C119.787 30.144 119.37 30.102 118.944 30.018C118.524 29.934 118.116 29.817 117.72 29.667C117.324 29.511 116.952 29.328 116.604 29.118C116.256 28.908 115.953 28.674 115.695 28.416L116.595 26.994C116.667 26.892 116.76 26.808 116.874 26.742C116.994 26.67 117.123 26.634 117.261 26.634C117.441 26.634 117.621 26.691 117.801 26.805C117.987 26.919 118.194 27.045 118.422 27.183C118.656 27.321 118.923 27.447 119.223 27.561C119.523 27.675 119.877 27.732 120.285 27.732C120.837 27.732 121.266 27.612 121.572 27.372C121.878 27.126 122.031 26.739 122.031 26.211C122.031 25.905 121.947 25.656 121.779 25.464C121.611 25.272 121.389 25.113 121.113 24.987C120.843 24.861 120.534 24.75 120.186 24.654C119.838 24.558 119.481 24.453 119.115 24.339C118.749 24.219 118.392 24.075 118.044 23.907C117.696 23.733 117.384 23.508 117.108 23.232C116.838 22.95 116.619 22.602 116.451 22.188C116.283 21.768 116.199 21.252 116.199 20.64C116.199 20.148 116.298 19.668 116.496 19.2C116.694 18.732 116.985 18.315 117.369 17.949C117.753 17.583 118.224 17.292 118.782 17.076C119.34 16.854 119.979 16.743 120.699 16.743C121.101 16.743 121.491 16.776 121.869 16.842C122.253 16.902 122.616 16.995 122.958 17.121C123.3 17.241 123.618 17.388 123.912 17.562C124.212 17.73 124.479 17.922 124.713 18.138L123.957 19.551ZM138.577 23.439C138.577 24.387 138.412 25.263 138.082 26.067C137.758 26.865 137.299 27.558 136.705 28.146C136.111 28.728 135.394 29.184 134.554 29.514C133.72 29.838 132.793 30 131.773 30H126.679V16.887H131.773C132.793 16.887 133.72 17.052 134.554 17.382C135.394 17.712 136.111 18.168 136.705 18.75C137.299 19.332 137.758 20.025 138.082 20.829C138.412 21.627 138.577 22.497 138.577 23.439ZM135.463 23.439C135.463 22.791 135.379 22.206 135.211 21.684C135.043 21.162 134.8 20.721 134.482 20.361C134.17 19.995 133.786 19.716 133.33 19.524C132.874 19.326 132.355 19.227 131.773 19.227H129.739V27.66H131.773C132.355 27.66 132.874 27.564 133.33 27.372C133.786 27.174 134.17 26.895 134.482 26.535C134.8 26.169 135.043 25.725 135.211 25.203C135.379 24.681 135.463 24.093 135.463 23.439Z" fill="white"/>
<path d="M114.775 45.905C114.738 45.9617 114.7 46.0033 114.66 46.03C114.623 46.0533 114.572 46.065 114.505 46.065C114.438 46.065 114.37 46.0483 114.3 46.015C114.23 45.9817 114.152 45.9467 114.065 45.91C113.978 45.87 113.878 45.8333 113.765 45.8C113.655 45.7667 113.527 45.75 113.38 45.75C113.157 45.75 112.983 45.7967 112.86 45.89C112.737 45.98 112.675 46.1 112.675 46.25C112.675 46.3533 112.71 46.44 112.78 46.51C112.85 46.58 112.942 46.6417 113.055 46.695C113.172 46.745 113.303 46.7933 113.45 46.84C113.597 46.8833 113.747 46.9317 113.9 46.985C114.057 47.0383 114.208 47.1 114.355 47.17C114.502 47.24 114.632 47.3283 114.745 47.435C114.862 47.5383 114.955 47.665 115.025 47.815C115.095 47.9617 115.13 48.14 115.13 48.35C115.13 48.6 115.083 48.8317 114.99 49.045C114.9 49.255 114.767 49.4367 114.59 49.59C114.413 49.7433 114.193 49.8633 113.93 49.95C113.667 50.0367 113.363 50.08 113.02 50.08C112.843 50.08 112.668 50.0633 112.495 50.03C112.322 50 112.157 49.9567 112 49.9C111.843 49.84 111.697 49.7717 111.56 49.695C111.423 49.6183 111.305 49.535 111.205 49.445L111.525 48.93C111.562 48.87 111.607 48.8233 111.66 48.79C111.717 48.7567 111.788 48.74 111.875 48.74C111.958 48.74 112.035 48.7617 112.105 48.805C112.175 48.845 112.253 48.89 112.34 48.94C112.427 48.9867 112.528 49.0317 112.645 49.075C112.765 49.115 112.913 49.135 113.09 49.135C113.223 49.135 113.338 49.12 113.435 49.09C113.532 49.06 113.61 49.02 113.67 48.97C113.73 48.9167 113.773 48.8583 113.8 48.795C113.83 48.7283 113.845 48.66 113.845 48.59C113.845 48.4767 113.808 48.385 113.735 48.315C113.665 48.2417 113.572 48.1783 113.455 48.125C113.342 48.0717 113.21 48.0233 113.06 47.98C112.91 47.9367 112.757 47.8883 112.6 47.835C112.447 47.7817 112.295 47.7183 112.145 47.645C111.998 47.5717 111.867 47.48 111.75 47.37C111.637 47.2567 111.543 47.1183 111.47 46.955C111.4 46.7917 111.365 46.5933 111.365 46.36C111.365 46.1467 111.407 45.945 111.49 45.755C111.573 45.5617 111.698 45.3917 111.865 45.245C112.032 45.0983 112.238 44.9817 112.485 44.895C112.735 44.8083 113.023 44.765 113.35 44.765C113.717 44.765 114.05 44.825 114.35 44.945C114.65 45.065 114.897 45.2217 115.09 45.415L114.775 45.905ZM117.774 50.08C117.54 50.08 117.334 50.0467 117.154 49.98C116.974 49.91 116.822 49.8117 116.699 49.685C116.575 49.5583 116.482 49.405 116.419 49.225C116.355 49.045 116.324 48.8417 116.324 48.615V45.835H115.839C115.765 45.835 115.702 45.8117 115.649 45.765C115.599 45.7183 115.574 45.6483 115.574 45.555V45.015L116.399 44.865L116.679 43.53C116.715 43.38 116.817 43.305 116.984 43.305H117.704V44.875H119.034V45.835H117.704V48.525C117.704 48.6683 117.737 48.7817 117.804 48.865C117.874 48.9483 117.972 48.99 118.099 48.99C118.165 48.99 118.222 48.9833 118.269 48.97C118.315 48.9533 118.355 48.9367 118.389 48.92C118.422 48.9 118.452 48.8833 118.479 48.87C118.509 48.8533 118.539 48.845 118.569 48.845C118.609 48.845 118.642 48.855 118.669 48.875C118.695 48.8917 118.722 48.9217 118.749 48.965L119.164 49.625C118.974 49.775 118.759 49.8883 118.519 49.965C118.279 50.0417 118.03 50.08 117.774 50.08ZM124.298 44.845V50H123.448C123.271 50 123.158 49.92 123.108 49.76L123.018 49.4C122.915 49.5 122.808 49.5917 122.698 49.675C122.588 49.7583 122.47 49.83 122.343 49.89C122.22 49.95 122.085 49.9967 121.938 50.03C121.795 50.0633 121.638 50.08 121.468 50.08C121.188 50.08 120.938 50.0317 120.718 49.935C120.501 49.8383 120.32 49.7033 120.173 49.53C120.026 49.3567 119.915 49.15 119.838 48.91C119.761 48.67 119.723 48.4067 119.723 48.12V44.845H121.103V48.12C121.103 48.4067 121.168 48.63 121.298 48.79C121.431 48.9467 121.628 49.025 121.888 49.025C122.081 49.025 122.263 48.9833 122.433 48.9C122.603 48.8133 122.765 48.6967 122.918 48.55V44.845H124.298ZM128.622 46.185C128.492 46.035 128.351 45.93 128.197 45.87C128.047 45.81 127.887 45.78 127.717 45.78C127.551 45.78 127.399 45.8117 127.262 45.875C127.126 45.9383 127.007 46.0383 126.907 46.175C126.811 46.3083 126.736 46.48 126.682 46.69C126.629 46.9 126.602 47.15 126.602 47.44C126.602 47.7267 126.624 47.97 126.667 48.17C126.711 48.37 126.772 48.5317 126.852 48.655C126.936 48.7783 127.036 48.8683 127.152 48.925C127.269 48.9783 127.399 49.005 127.542 49.005C127.786 49.005 127.989 48.9567 128.152 48.86C128.319 48.7633 128.476 48.6267 128.622 48.45V46.185ZM130.002 42.545V50H129.152C128.976 50 128.862 49.92 128.812 49.76L128.697 49.31C128.594 49.4233 128.484 49.5267 128.367 49.62C128.254 49.7133 128.131 49.795 127.997 49.865C127.864 49.9317 127.721 49.9833 127.567 50.02C127.414 50.0567 127.247 50.075 127.067 50.075C126.791 50.075 126.537 50.0167 126.307 49.9C126.077 49.7833 125.877 49.6133 125.707 49.39C125.541 49.1633 125.411 48.8867 125.317 48.56C125.224 48.2333 125.177 47.86 125.177 47.44C125.177 47.0567 125.229 46.7 125.332 46.37C125.439 46.04 125.589 45.755 125.782 45.515C125.976 45.275 126.209 45.0867 126.482 44.95C126.756 44.8133 127.059 44.745 127.392 44.745C127.672 44.745 127.907 44.7867 128.097 44.87C128.291 44.9533 128.466 45.0667 128.622 45.21V42.545H130.002ZM132.57 44.845V50H131.19V44.845H132.57ZM132.735 43.38C132.735 43.4967 132.712 43.605 132.665 43.705C132.618 43.805 132.555 43.8933 132.475 43.97C132.398 44.0467 132.307 44.1067 132.2 44.15C132.097 44.1933 131.985 44.215 131.865 44.215C131.752 44.215 131.643 44.1933 131.54 44.15C131.44 44.1067 131.352 44.0467 131.275 43.97C131.198 43.8933 131.137 43.805 131.09 43.705C131.047 43.605 131.025 43.4967 131.025 43.38C131.025 43.2633 131.047 43.155 131.09 43.055C131.137 42.9517 131.198 42.8617 131.275 42.785C131.352 42.7083 131.44 42.6483 131.54 42.605C131.643 42.5617 131.752 42.54 131.865 42.54C131.985 42.54 132.097 42.5617 132.2 42.605C132.307 42.6483 132.398 42.7083 132.475 42.785C132.555 42.8617 132.618 42.9517 132.665 43.055C132.712 43.155 132.735 43.2633 132.735 43.38Z" fill="white"/>
</svg>
