<svg width="173" height="123" viewBox="0 0 173 123" fill="none" xmlns="http://www.w3.org/2000/svg">
<path d="M126 22C77.25 22 67.5 31.75 67.5 31.75V71.6275C65.9304 71.0836 64.2857 70.7875 62.625 70.75C54.5325 70.75 48 77.2825 48 85.375C48 93.4675 54.5325 100 62.625 100C70.7175 100 77.25 93.4675 77.25 85.375V46.6675C84.3675 44.425 96.6525 42.3775 116.25 41.7925V61.8775C114.68 61.3336 113.036 61.0375 111.375 61C103.282 61 96.75 67.5325 96.75 75.625C96.75 83.7175 103.282 90.25 111.375 90.25C119.467 90.25 126 83.7175 126 75.625V22Z" fill="#03012C"/>
<path fill-rule="evenodd" clip-rule="evenodd" d="M173 0H0V5.36252C5.64645 5.60004 10.1749 12.5006 10.1749 20.9785C10.1749 29.4564 5.64645 36.357 0 36.5945V45.5342C5.64645 45.7717 10.1749 52.6723 10.1749 61.1502C10.1749 69.628 5.64645 76.5286 0 76.7661V85.7058C5.64645 85.9433 10.1749 92.8439 10.1749 101.322C10.1749 109.8 5.64645 116.7 0 116.938V122.3H173V116.938C172.9 116.942 172.8 116.944 172.699 116.944C166.913 116.944 162.223 109.95 162.223 101.322C162.223 92.6938 166.913 85.6995 172.699 85.6995C172.8 85.6995 172.9 85.7016 173 85.7058V76.7661C172.9 76.7703 172.8 76.7725 172.699 76.7725C166.913 76.7725 162.223 69.7781 162.223 61.1502C162.223 52.5222 166.913 45.5278 172.699 45.5278C172.8 45.5278 172.9 45.5299 173 45.5342V36.5945C172.9 36.5987 172.8 36.6008 172.699 36.6008C166.913 36.6008 162.223 29.6065 162.223 20.9785C162.223 12.3506 166.913 5.3562 172.699 5.3562C172.8 5.3562 172.9 5.35832 173 5.36252V0ZM154.442 9.81982H19.1546V112.481H154.442V9.81982Z" fill="#03012C"/>
</svg>
