<svg width="202" height="139" viewBox="0 0 202 139" fill="none" xmlns="http://www.w3.org/2000/svg">
<rect x="21.7421" y="12.7299" width="3.62363" height="126.223" fill="#03012C"/>
<path fill-rule="evenodd" clip-rule="evenodd" d="M2.41711 19.4328V25.6101L9.87096 33.064L2.41711 40.5178V46.1085L9.87096 53.5623L2.41711 61.0162V66.6069L9.87096 74.0607L2.41711 81.5145V87.1052L9.87096 94.5591L2.41711 102.013V107.604L9.87096 115.057L2.41711 122.511V138.953H22.951V122.474L22.6806 122.744L14.9937 115.057L22.6806 107.371L22.951 107.641V101.976L22.6806 102.246L14.9937 94.5591L22.6806 86.8722L22.951 87.1426V81.4771L22.6806 81.7476L14.9937 74.0607L22.6806 66.3738L22.951 66.6442V60.9788L22.6806 61.2492L14.9937 53.5623L22.6806 45.8755L22.951 46.1459V40.4804L22.6806 40.7509L14.9937 33.064L22.6806 25.3771L22.951 25.6475V19.9821L22.6806 20.2525L15.1578 12.7297H9.12018L2.41711 19.4328ZM4.74545 43.3132L12.4323 35.6263L20.1192 43.3132L12.4323 51.0001L4.74545 43.3132ZM12.4323 15.1279L4.74545 22.8148L12.4323 30.5017L20.1192 22.8148L12.4323 15.1279ZM4.74545 104.808L12.4323 97.1213L20.1192 104.808L12.4323 112.495L4.74545 104.808ZM4.74545 84.3099L12.4323 76.623L20.1192 84.3099L12.4323 91.9968L4.74545 84.3099ZM4.74545 63.8115L12.4323 56.1246L20.1192 63.8115L12.4323 71.4984L4.74545 63.8115ZM12.4323 117.62L4.74545 125.307L12.4323 132.993L20.1192 125.307L12.4323 117.62Z" fill="#03012C"/>
<path fill-rule="evenodd" clip-rule="evenodd" d="M0 21.833V138.953H3.62363V18.2094L0 21.833Z" fill="#03012C"/>
<rect x="4.43164" y="17.4377" width="24.6609" height="3.94899" transform="rotate(-45 4.43164 17.4377)" fill="#03012C"/>
<rect width="3.62363" height="126.223" transform="matrix(-1 0 0 1 179.974 12.7767)" fill="#03012C"/>
<path fill-rule="evenodd" clip-rule="evenodd" d="M199.3 19.4804V25.6581L191.848 33.1107L199.3 40.5633V46.1565L191.848 53.6091L199.3 61.0616V66.6548L191.848 74.1074L199.3 81.56V87.1532L191.848 94.6058L199.3 102.058V107.652L191.848 115.104L199.3 122.557V139H178.766V122.519L179.038 122.791L186.725 115.104L179.038 107.417L178.766 107.689V102.021L179.038 102.293L186.725 94.6058L179.038 86.9189L178.766 87.1906V81.5226L179.038 81.7943L186.725 74.1074L179.038 66.4205L178.766 66.6922V61.0243L179.038 61.2959L186.725 53.6091L179.038 45.9222L178.766 46.1939V40.5259L179.038 40.7976L186.725 33.1107L179.038 25.4238L178.766 25.6955V20.0275L179.038 20.2992L186.561 12.7767H192.597L199.3 19.4804ZM196.973 43.3599L189.286 35.673L181.599 43.3599L189.286 51.0468L196.973 43.3599ZM189.286 15.1747L196.973 22.8615L189.286 30.5484L181.599 22.8615L189.286 15.1747ZM196.973 104.855L189.286 97.1681L181.599 104.855L189.286 112.542L196.973 104.855ZM196.973 84.3566L189.286 76.6697L181.599 84.3566L189.286 92.0435L196.973 84.3566ZM196.973 63.8582L189.286 56.1714L181.599 63.8582L189.286 71.5451L196.973 63.8582ZM189.286 117.666L196.973 125.353L189.286 133.04L181.599 125.353L189.286 117.666Z" fill="#03012C"/>
<path fill-rule="evenodd" clip-rule="evenodd" d="M201.717 21.8801V139H198.093V18.2565L201.717 21.8801Z" fill="#03012C"/>
<rect width="24.6609" height="3.94899" transform="matrix(-0.707107 -0.707107 -0.707107 0.707107 197.285 17.4848)" fill="#03012C"/>
<rect x="21.7421" y="0.0471191" width="158.232" height="20.5339" fill="#03012C"/>
<rect x="25.3662" y="120.835" width="150.985" height="18.1182" fill="#03012C"/>
<rect x="33.2148" y="66.6685" width="34.4245" height="59.186" rx="6" fill="#03012C"/>
<ellipse cx="51.0322" cy="113.776" rx="5.13348" ry="4.83151" fill="white"/>
<circle cx="51.0322" cy="77.2375" r="5.13348" fill="white"/>
<circle cx="50.7302" cy="95.6577" r="7.8512" fill="white"/>
<rect x="133.471" y="66.6685" width="34.4245" height="59.186" rx="6" fill="#03012C"/>
<ellipse cx="151.288" cy="113.776" rx="5.13348" ry="4.83151" fill="white"/>
<circle cx="151.288" cy="77.2375" r="5.13348" fill="white"/>
<circle cx="150.986" cy="95.6577" r="7.8512" fill="white"/>
<path d="M40.9179 41.554C39.3336 38.8099 40.2738 35.3009 43.0179 33.7166V33.7166C45.7621 32.1322 49.2711 33.0724 50.8554 35.8166L54.63 42.3544L44.6925 48.0918L40.9179 41.554Z" fill="#03012C"/>
<path d="M129.394 35.2128C130.979 32.4687 134.488 31.5284 137.232 33.1128V33.1128C139.976 34.6971 140.916 38.2061 139.332 40.9502L135.557 47.4881L125.62 41.7507L129.394 35.2128Z" fill="#03012C"/>
<path d="M60.2424 40.9502C58.658 38.206 59.5982 34.6971 62.3424 33.1127V33.1127C65.0866 31.5284 68.5955 32.4686 70.1799 35.2128L73.9545 41.7506L64.017 47.488L60.2424 40.9502Z" fill="#03012C"/>
<path d="M149.323 35.2128C150.908 32.4687 154.417 31.5284 157.161 33.1128V33.1128C159.905 34.6971 160.845 38.2061 159.261 40.9502L155.486 47.4881L145.549 41.7507L149.323 35.2128Z" fill="#03012C"/>
<rect x="42.8798" y="20.5809" width="3.62363" height="15.0985" fill="#03012C"/>
<rect x="153.401" y="20.5809" width="3.62363" height="15.0985" fill="#03012C"/>
<rect x="133.47" y="20.5809" width="3.62363" height="15.0985" fill="#03012C"/>
<rect x="62.2065" y="20.5809" width="3.62363" height="15.0985" fill="#03012C"/>
</svg>
