<svg width="137" height="137" viewBox="0 0 137 137" fill="none" xmlns="http://www.w3.org/2000/svg">
<g clip-path="url(#clip0_16_244)">
<path d="M65.1283 0.692114C67.2689 -0.23103 69.7307 -0.23103 71.8713 0.692114L131.809 26.3804C135.555 27.9886 137.642 32.0022 136.813 35.9624C136.01 39.9493 132.504 42.5716 128.196 42.8124V44.953C128.196 48.5118 125.574 51.3749 121.775 51.3749H14.7434C11.4361 51.3749 8.32149 48.5118 8.32149 44.953V42.8124C4.4978 42.5716 0.99199 39.9493 0.174539 35.9624C-0.642913 32.0022 1.45249 27.9886 5.18815 26.3804L65.1283 0.692114ZM68.4998 34.2499C73.2359 34.2499 77.0623 30.4235 77.0623 25.6874C77.0623 20.9593 73.2359 17.1249 68.4998 17.1249C63.7637 17.1249 59.9373 20.9593 59.9373 25.6874C59.9373 30.4235 63.7637 34.2499 68.4998 34.2499ZM34.009 111.312H44.7121V59.9374H61.8371V111.312H74.9217V59.9374H92.0467V111.312H102.75V59.9374H119.875V112.463C120.035 112.543 120.196 112.409 120.356 112.757L133.2 121.32C136.331 123.407 137.722 127.314 136.625 130.926C135.528 134.538 132.21 137 128.437 137H8.32149C4.78946 137 1.46025 134.538 0.366927 130.926C-0.726664 127.314 0.672769 123.407 3.8128 121.32L16.6565 112.757C16.8091 112.409 16.9669 112.543 16.884 112.463V59.9374H34.009V111.312Z" fill="#03012C"/>
</g>
<defs>
<clipPath id="clip0_16_244">
<rect width="137" height="137" fill="white"/>
</clipPath>
</defs>
</svg>
