<svg width="44" height="44" viewBox="0 0 44 44" fill="none" xmlns="http://www.w3.org/2000/svg">
<path d="M21.9999 0.333252C10.2544 0.333252 0.333252 10.2544 0.333252 21.9999C0.333252 33.7454 10.2544 43.6666 21.9999 43.6666C33.7454 43.6666 43.6666 33.7454 43.6666 21.9999C43.6666 10.2544 33.7454 0.333252 21.9999 0.333252ZM21.9999 11.1666C25.7418 11.1666 28.4999 13.9226 28.4999 17.6666C28.4999 21.4106 25.7418 24.1666 21.9999 24.1666C18.2603 24.1666 15.4999 21.4106 15.4999 17.6666C15.4999 13.9226 18.2603 11.1666 21.9999 11.1666ZM10.9369 32.3392C12.8804 29.4792 16.1218 27.5726 19.8333 27.5726H24.1666C27.8802 27.5726 31.1194 29.4792 33.0629 32.3392C30.2939 35.3032 26.3658 37.1666 21.9999 37.1666C17.6341 37.1666 13.7059 35.3032 10.9369 32.3392Z" fill="#03012C"/>
</svg>
