<svg width="138" height="118" viewBox="0 0 138 118" fill="none" xmlns="http://www.w3.org/2000/svg">
<path d="M55.75 55.8899C70.9378 55.8899 83.25 43.5443 83.25 28.3152C83.25 13.0861 70.9378 0.740479 55.75 0.740479C40.5622 0.740479 28.25 13.0861 28.25 28.3152C28.25 43.5443 40.5622 55.8899 55.75 55.8899Z" fill="#03012C"/>
<path d="M60.3563 62.9216C58.8438 62.8526 57.3313 62.7837 55.75 62.7837C39.1125 62.7837 23.575 67.4025 10.3063 75.3302C4.25625 78.9149 0.75 85.6707 0.75 92.7712V111.039H64.4125C59.5566 104.094 56.6231 95.9816 55.9105 87.5292C55.198 79.0769 56.732 70.5862 60.3563 62.9216V62.9216ZM129.656 83.4647C129.656 81.9481 129.45 80.5694 129.244 79.1217L137.081 72.1591L130.206 60.233L120.237 63.6109C118.037 61.7496 115.562 60.302 112.812 59.2679L110.75 48.9963H97L94.9375 59.2679C92.1875 60.302 89.7125 61.7496 87.5125 63.6109L77.5438 60.233L70.6688 72.1591L78.5063 79.1217C78.3 80.5694 78.0938 81.9481 78.0938 83.4647C78.0938 84.9814 78.3 86.3601 78.5063 87.8078L70.6688 94.7704L77.5438 106.696L87.5125 103.319C89.7125 105.18 92.1875 106.628 94.9375 107.662L97 117.933H110.75L112.812 107.662C115.562 106.628 118.037 105.18 120.237 103.319L130.206 106.696L137.081 94.7704L129.244 87.8078C129.45 86.3601 129.656 84.9814 129.656 83.4647V83.4647ZM103.875 97.2521C96.3125 97.2521 90.125 91.0478 90.125 83.4647C90.125 75.8817 96.3125 69.6774 103.875 69.6774C111.438 69.6774 117.625 75.8817 117.625 83.4647C117.625 91.0478 111.438 97.2521 103.875 97.2521Z" fill="#03012C"/>
</svg>
